<svg width="36" height="37" viewBox="0 0 36 37" fill="none" xmlns="http://www.w3.org/2000/svg">
<circle cx="18" cy="18.8146" r="18" fill="black"/>
<path d="M15.0002 8.97137C19.3963 13.3518 24.929 16.2482 30.9979 17.347C30.2664 10.853 24.739 5.80205 18.0226 5.80205C16.249 5.80205 14.5583 6.15571 13.0146 6.79377C13.6411 7.54832 14.3107 8.28294 15.0002 8.97242V8.97137Z" fill="#F5F5F5"/>
<path d="M5 19.7849H21.2171C18.5336 20.5163 16.0444 21.443 13.8762 22.5229C11.4027 23.7539 9.35205 25.1664 7.77683 26.7206L7.70652 26.7909C6.17329 24.8285 5.19625 22.4158 5 19.7849Z" fill="#F5F5F5"/>
<path d="M20.6525 21.9719L20.6514 21.9708L20.6509 21.971L20.6493 21.9719C15.7369 23.4474 11.6745 25.5998 9.12956 28.1206L9.01728 28.2329C9.69417 28.873 10.4361 29.446 11.2379 29.933L11.41 29.722C12.1048 28.873 12.8499 28.0534 13.6254 27.281C15.7064 25.2073 18.0866 23.4128 20.6493 21.9719H20.6525Z" fill="#F5F5F5"/>
<path d="M20.6525 15.6605C15.739 14.1819 11.6745 12.0326 9.12956 9.50764H9.13061L9.01833 9.39535C9.69208 8.75519 10.434 8.18324 11.2358 7.6963L11.4079 7.90724C12.1058 8.75834 12.8499 9.57795 13.6233 10.3482C15.7054 12.423 18.0876 14.2165 20.6525 15.6605Z" fill="#F5F5F5"/>
<path d="M15.0002 28.6569C14.3075 29.3463 13.639 30.081 13.0146 30.8355C14.5562 31.4736 16.249 31.8272 18.0226 31.8272C24.739 31.8272 30.2664 26.7752 31 20.2791C24.9321 21.3779 19.3994 24.2744 15.0023 28.6548L15.0002 28.6569Z" fill="#F5F5F5"/>
<path d="M13.8731 15.1043V15.1022C16.0444 16.1853 18.5315 17.1119 21.2139 17.8434H5C5.19625 15.2124 6.17329 12.7997 7.70652 10.8373L7.77683 10.9076C9.35205 12.4597 11.4016 13.8733 13.8731 15.1043Z" fill="#F5F5F5"/>
</svg>
